# xmcd
#
# Track frame offsets:
#	150
#	12052
#	27063
#	39202
#	57299
#	72228
#	92203
#	106412
#	125950
#	139321
#	150888
#
# Disc length: 2261 seconds
#
# Revision: 1
# Processed by: cddbd v1.5.2PL0 Copyright (c) Steve Scherf et al.
# Submitted via: audiograbber 1.83.01
#
DISCID=8908d30b
DTITLE=Anthony McBrien - Better Late Than Never
DYEAR=1900
DGENRE=
TTITLE0=Better Man
TTITLE1=Point Of Light
TTITLE2=Pretty Little Girl From Omagh
TTITLE3=Broken The Line
TTITLE4=Look But Don't Touch
TTITLE5=Home To Donegal
TTITLE6=Every Nights A Saturday Night
TTITLE7=Don't Close Your Eyes
TTITLE8=Irma Jackson
TTITLE9=Sweetest Of All
TTITLE10=Mothers Song
EXTD=
EXTT0=
EXTT1=
EXTT2=
EXTT3=
EXTT4=
EXTT5=
EXTT6=
EXTT7=
EXTT8=
EXTT9=
EXTT10=
PLAYORDER=
